<?xml version="1.0" encoding="UTF-8" standalone="no"?>
<!-- Created with Inkscape (http://www.inkscape.org/) -->

<svg
   width="46.41732mm"
   height="14.119035mm"
   viewBox="0 0 46.41732 14.119035"
   version="1.1"
   id="svg1"
   inkscape:version="1.4 (e7c3feb1, 2024-10-09)"
   sodipodi:docname="DEP_small.svg"
   xmlns:inkscape="http://www.inkscape.org/namespaces/inkscape"
   xmlns:sodipodi="http://sodipodi.sourceforge.net/DTD/sodipodi-0.dtd"
   xmlns="http://www.w3.org/2000/svg"
   xmlns:svg="http://www.w3.org/2000/svg">
  <sodipodi:namedview
     id="namedview1"
     pagecolor="#ffffff"
     bordercolor="#000000"
     borderopacity="0.25"
     inkscape:showpageshadow="2"
     inkscape:pageopacity="0.0"
     inkscape:pagecheckerboard="0"
     inkscape:deskcolor="#d1d1d1"
     inkscape:document-units="mm"
     inkscape:zoom="3.1358025"
     inkscape:cx="82.753937"
     inkscape:cy="70.795276"
     inkscape:window-width="2048"
     inkscape:window-height="1029"
     inkscape:window-x="0"
     inkscape:window-y="25"
     inkscape:window-maximized="1"
     inkscape:current-layer="layer1" />
  <defs
     id="defs1" />
  <g
     inkscape:label="Layer 1"
     inkscape:groupmode="layer"
     id="layer1"
     transform="translate(130.41151,-56.763777)">
    <path
       id="rect1"
       style="fill:#000000;stroke-width:0.0642882"
       d="m -127.25718,56.763777 c 0.0674,0.255939 0.33008,0.529667 0.87695,0.89917 l 0.46095,0.311609 0.60048,-0.04393 c 0.33047,-0.0242 0.83413,-0.04393 1.11879,-0.04393 0.50504,0 0.52038,0.0031 0.63821,0.14056 0.2223,0.25859 0.11574,0.545336 -0.25477,0.685746 -0.23759,0.09 -1.11786,0.111536 -1.35185,0.03307 -0.11014,-0.0369 -0.32234,-0.129402 -0.47181,-0.205672 -0.28478,-0.14532 -0.37262,-0.149515 -1.06918,-0.04909 -0.23127,0.0333 -0.24503,0.02783 -0.42685,-0.163298 -0.10563,-0.11103 -0.2624,-0.371695 -0.3576,-0.594795 -0.38104,-0.892994 -0.73283,-1.087214 -1.44487,-0.797884 -0.3775,0.153389 -0.71633,0.161023 -1.16066,0.02532 -0.12747,-0.03896 -0.22158,-0.05477 -0.31212,-0.07131 v 1.030944 c 0.47882,0.01503 1.68526,0.149269 1.82521,0.20774 0.40923,0.17099 0.51123,0.572943 0.21911,0.865063 -0.23969,0.239686 -0.46373,0.229378 -1.08159,-0.05013 -0.41712,-0.188672 -0.73499,-0.291547 -0.96273,-0.318327 v 0.833024 c 0.10477,0.08767 0.21187,0.213121 0.21187,0.276469 0,0.13403 -0.0948,0.272761 -0.21187,0.356051 v 0.718302 c 0.34986,0.08183 1.42716,0.50988 1.67896,0.671277 0.39037,0.25022 0.49054,0.421372 0.54364,0.929142 0.0991,0.94643 -0.10116,1.533903 -0.59479,1.745113 -0.22369,0.0957 -0.28462,0.08794 -0.46096,-0.06046 -0.21005,-0.17675 -0.20476,-0.392109 0.0212,-0.857829 0.43582,-0.89838 0.057,-1.494907 -0.98702,-1.554427 l -0.20102,-0.01137 v 0.82579 c 0.0234,0.01476 0.0381,0.02009 0.0667,0.03927 0.22078,0.14856 0.32448,0.43672 0.24908,0.69143 -0.0559,0.188962 -0.15669,0.296656 -0.31574,0.350883 v 0.943612 h 0.0289 c 0.35462,0 0.57036,0.07766 0.78548,0.282153 0.20029,0.19041 0.2926,0.20199 0.68523,0.08785 0.7361,-0.21399 1.34647,0.276118 1.01699,0.816488 -0.18818,0.308644 -0.62377,0.409014 -0.93948,0.216524 -0.0888,-0.0541 -0.23052,-0.220997 -0.31522,-0.371037 -0.21629,-0.383237 -0.25661,-0.409626 -0.51367,-0.334346 -0.34076,0.0998 -0.63181,0.291443 -0.66921,0.440283 -0.0183,0.0731 -0.005,0.224087 0.0295,0.335897 0.119,0.38748 0.12022,0.544107 0.004,0.691947 -0.0326,0.04148 -0.0721,0.07575 -0.11265,0.09974 v 1.117244 c 0.16463,-0.0463 0.35697,-0.187041 0.53485,-0.404109 0.23905,-0.29173 0.50069,-0.439556 1.05368,-0.594796 0.24782,-0.0696 0.58357,-0.172657 0.74621,-0.228927 0.35102,-0.12147 0.63136,-0.13012 0.83199,-0.02635 0.27919,0.14437 0.33412,0.466773 0.12247,0.718303 -0.15329,0.18217 -0.31395,0.237804 -0.88832,0.307474 -0.71931,0.0873 -1.6307,0.464743 -1.86396,0.772563 -0.0639,0.0843 -0.16703,0.328513 -0.22893,0.542603 -0.0829,0.286714 -0.19122,0.482324 -0.30799,0.574642 v 1.254187 l 0.0367,-0.0036 c 0.54902,-0.0567 0.88317,-0.360575 1.17409,-1.069185 0.32848,-0.8001 0.58874,-1.02074 1.24798,-1.0573 0.33794,-0.0188 0.40071,-0.0082 0.55191,0.09612 0.26804,0.18448 0.38034,0.369219 0.38034,0.626319 0,0.399823 -0.31867,0.525492 -0.79634,0.314192 -0.30225,-0.133702 -0.51571,-0.112144 -0.6475,0.06511 l -0.10181,0.136942 0.11524,0.351917 c 0.0949,0.289607 0.10725,0.472654 0.003,0.603064 h 1.3963 c 0.0344,-0.06854 0.0708,-0.132199 0.10077,-0.213424 0.0964,-0.2611 0.21934,-0.436629 0.36328,-0.523999 0.072,-0.04369 0.14931,-0.06554 0.231,-0.0646 0.0817,9.49e-4 0.16774,0.02471 0.25786,0.07131 0.0774,0.04 0.16986,0.142563 0.20516,0.227893 0.0638,0.153944 0.0347,0.311266 -0.0822,0.502812 h 0.99219 c 0.11157,-0.257416 0.20811,-0.365016 0.37465,-0.434599 0.0697,-0.02915 0.12241,-0.04457 0.17467,-0.04703 0.0523,-0.0025 0.10409,0.008 0.17208,0.03049 0.2083,0.06874 0.29995,0.245987 0.2682,0.451136 h 2.20245 c 0.57753,-0.627313 1.33946,-1.30083 1.62988,-1.436605 0.16955,-0.07925 0.34301,-0.117171 0.50281,-0.116789 0.0533,1.27e-4 0.1049,0.0043 0.15451,0.01292 0.19845,0.03434 0.36275,0.135399 0.45165,0.295589 0.0848,0.15252 0.0829,0.265836 -0.005,0.436666 -0.092,0.17792 -0.2518,0.242588 -0.75345,0.305408 -0.23753,0.0297 -0.5055,0.101733 -0.65887,0.176733 -0.12462,0.06094 -0.26662,0.181588 -0.41186,0.326079 h 2.95072 c -0.0644,-0.09996 -0.10232,-0.205654 -0.10232,-0.310059 0,-0.23306 0.0489,-0.337398 0.30283,-0.643888 0.25508,-0.30789 0.27695,-0.408581 0.14779,-0.675411 -0.0865,-0.17875 -0.16111,-0.248064 -0.38395,-0.357084 -0.24482,-0.119785 -0.35541,-0.139155 -0.96015,-0.166915 -0.86626,-0.0398 -1.00924,-0.112815 -1.00924,-0.516765 0,-0.313275 0.11102,-0.359024 0.9126,-0.377754 0.38606,-0.009 0.75286,-0.0043 0.81546,0.01189 0.0626,0.0157 0.28542,0.144658 0.49506,0.286288 0.45322,0.30618 0.62237,0.325876 1.02784,0.120406 0.33533,-0.169925 0.59078,-0.1794 0.71469,-0.02635 0.21612,0.2669 0.0462,0.57712 -0.52194,0.95188 -0.54467,0.35935 -0.60717,0.449616 -0.56947,0.824756 0.0438,0.435173 0.0601,0.689116 0.0594,0.879016 h 2.54765 c 3.9e-4,-3.76e-4 6.7e-4,-6.92e-4 0.001,-0.001 0.48443,-0.4689 0.61219,-0.538942 1.14877,-0.625801 0.47179,-0.0764 0.57708,-0.121089 0.7245,-0.308509 0.1219,-0.155 0.14072,-0.524146 0.0367,-0.719336 -0.35393,-0.66376 -0.78972,-1.35173 -1.01854,-1.60817 -0.35532,-0.39777 -0.44072,-0.592699 -0.36432,-0.824239 0.0709,-0.21482 0.24419,-0.323228 0.4408,-0.324528 0.19661,-0.0013 0.41612,0.104128 0.57878,0.317293 0.17134,0.22464 1.3647,2.727713 1.4366,3.013253 0.10574,0.41996 -0.0367,0.787365 -0.36639,0.943095 -0.0628,0.02966 -0.2552,0.08352 -0.4687,0.137976 h 1.43247 c 0.0453,-0.09206 0.1182,-0.174241 0.22583,-0.22531 0.11718,-0.05561 0.20506,-0.07959 0.27905,-0.07028 0.074,0.0093 0.13408,0.05192 0.19585,0.130225 0.0455,0.0575 0.0698,0.107515 0.0816,0.165365 h 1.35444 c -0.33765,-0.328711 -0.6198,-0.458994 -1.0852,-0.531234 -0.28626,-0.0444 -0.47593,-0.241974 -0.58136,-0.604614 -0.11763,-0.40465 -0.0303,-0.680986 0.41082,-1.300696 0.11969,-0.16815 0.29096,-0.460786 0.38086,-0.650606 0.14234,-0.30049 0.16583,-0.406502 0.17983,-0.820622 0.0154,-0.45417 0.009,-0.48933 -0.14417,-0.77618 -0.42822,-0.80151 -0.45382,-0.864964 -0.52762,-1.323434 -0.0767,-0.47631 -0.14778,-0.655686 -0.41806,-1.054716 -0.19231,-0.28396 -0.19696,-0.458717 -0.016,-0.600997 0.10063,-0.07911 0.17685,-0.09971 0.28783,-0.07751 h 5.2e-4 c 0.22418,0.0448 0.36256,0.214647 0.52038,0.637687 0.0779,0.2087 0.22397,0.514522 0.32453,0.680062 0.2633,0.43346 0.33249,0.66897 0.3328,1.13223 3.7e-4,0.52805 0.0506,0.693831 0.3483,1.149801 0.42492,0.65092 0.53988,0.737286 1.30689,0.981336 0.79379,0.252604 0.98979,0.252293 1.21647,-0.001 0.12276,-0.13777 0.13945,-0.189199 0.11575,-0.365869 -0.0425,-0.31707 -0.25498,-0.481264 -0.62322,-0.481624 -0.15789,-1.5e-4 -0.37715,-0.02468 -0.4873,-0.05478 -0.29447,-0.0803 -0.65376,-0.47688 -0.93897,-1.03663 -0.29507,-0.57913 -0.31691,-0.86834 -0.0997,-1.3255 l 0.13746,-0.289388 0.18448,0.152445 c 0.27179,0.22511 0.38674,0.447183 0.47284,0.911573 0.10718,0.5778 0.23768,0.779766 0.70694,1.094506 l 0.38809,0.26045 0.47594,-0.02791 c 0.74088,-0.043 1.05109,0.111839 1.05109,0.523999 0,0.17535 -0.0386,0.237756 -0.34468,0.561206 -0.36118,0.38193 -0.44618,0.570044 -0.36018,0.796334 0.12162,0.31989 0.7564,0.412086 1.16944,0.170016 0.29462,-0.17265 0.46347,-0.378697 0.66145,-0.808737 0.27504,-0.597441 0.5512,-0.76096 0.9586,-0.56689 0.2304,0.10975 0.27798,0.436247 0.11317,0.776697 -0.13319,0.27513 -0.80491,0.9928 -1.04179,1.11311 -0.3147,0.15983 -1.36033,0.415173 -1.5813,0.386023 -0.23684,-0.0312 -0.39264,-0.199245 -0.46974,-0.505395 -0.0657,-0.26108 -0.20597,-0.409859 -0.52658,-0.559139 -0.64497,-0.30032 -1.3961,0.008 -1.23197,0.504878 0.0466,0.14132 0.4422,0.576709 0.524,0.576709 0.17232,0 1.02624,0.277679 1.12034,0.364319 0.30675,0.282414 0.3215,0.733457 0.13075,0.990121 h 0.894 c 0.15987,-0.368192 0.64336,-0.622978 1.46192,-0.760161 0.89822,-0.15054 1.07426,-0.272121 1.33894,-0.924491 0.14753,-0.36371 0.16143,-0.444828 0.16743,-0.996838 0.009,-0.80315 0.003,-0.763924 0.14263,-0.903304 0.0905,-0.09048 0.18734,-0.127957 0.28164,-0.121957 0.28302,0.01805 0.5437,0.428992 0.5457,0.98547 0.002,0.75666 -0.16912,1.169858 -0.61857,1.491898 -0.54002,0.386916 -0.56655,0.723913 -0.0987,1.229383 h 2.202966 c 0.08393,-0.07272 0.167694,-0.136442 0.251664,-0.186552 0.59964,-0.35783 0.90707,-0.634269 1.25057,-1.124479 0.222843,-0.31801 0.395743,-0.511013 0.549837,-0.595313 0.07705,-0.04215 0.149649,-0.05706 0.221175,-0.04703 0.07153,0.01003 0.141975,0.04501 0.215491,0.102837 0.09995,0.0786 0.131508,0.148337 0.131258,0.287837 -4.25e-4,0.23703 -0.100257,0.381057 -0.500228,0.722437 -0.17898,0.15277 -0.438727,0.399864 -0.577226,0.548804 -0.08096,0.08707 -0.202034,0.187685 -0.317293,0.291455 h 1.522904 c -0.01067,-0.0932 -0.0079,-0.179486 0.02067,-0.294556 0.144937,-0.58393 0.540119,-0.849398 1.504818,-1.011308 0.627449,-0.10531 0.799388,-0.165559 1.090372,-0.383439 0.09084,-0.068 0.195858,-0.112087 0.233578,-0.09767 0.115834,0.0444 1.133831,1.44062 1.286743,1.76475 0.0035,0.0074 0.0054,0.0148 0.0088,0.02222 h 3.089734 c 0.09192,-0.07481 0.209737,-0.121674 0.33383,-0.133842 0.04498,-0.0044 0.0904,-0.0048 0.135392,-5.17e-4 0.119535,0.01127 0.231351,0.05913 0.321944,0.134359 h 1.195276 c -0.154716,-0.234351 -0.58877,-0.595304 -0.945162,-0.773597 -0.536142,-0.26822 -0.800222,-0.239442 -1.336352,0.145728 -0.787446,0.56573 -1.476258,0.502392 -2.194182,-0.201538 -0.479572,-0.47022 -0.615046,-0.797553 -0.669726,-1.622123 -0.03063,-0.46184 -0.07978,-0.767943 -0.170533,-1.055233 -0.202758,-0.64184 -0.180875,-0.775774 0.165882,-1.008724 0.394363,-0.26494 0.555843,-0.450469 0.794783,-0.912089 0.172416,-0.33309 0.341055,-0.560347 0.66766,-0.901237 0.24018,-0.25069 0.531097,-0.576093 0.646472,-0.722953 0.115376,-0.14686 0.313734,-0.338107 0.4408,-0.425297 0.424955,-0.29159 0.472975,-0.368248 0.451135,-0.712618 -0.0169,-0.26645 -0.05003,-0.349228 -0.271301,-0.675928 -0.29483,-0.43533 -0.304598,-0.458894 -0.396358,-0.938444 -0.04637,-0.24232 -0.13153,-0.466983 -0.252181,-0.665593 -0.311249,-0.51237 -0.282986,-0.780367 0.139009,-1.326017 0.270232,-0.34941 0.685879,-0.666398 1.097608,-0.837158 1.063815,-0.44121 1.538376,-0.603131 1.831413,-0.624251 0.293361,-0.0212 0.319607,-0.01372 0.46302,0.129708 0.16858,0.16858 0.192907,0.335807 0.08062,0.552937 -0.100055,0.19348 -0.273916,0.258771 -0.900204,0.336931 -1.177782,0.14698 -1.737791,0.502836 -1.881539,1.195276 -0.06521,0.31413 -0.0057,0.741561 0.185002,1.328601 0.148097,0.45589 0.311751,0.681795 0.58446,0.805635 0.267465,0.121494 0.522189,0.119341 0.983403,-0.0072 0.465118,-0.12782 0.682907,-0.269051 1.097091,-0.710551 0.399531,-0.425872 0.544161,-0.504662 0.917773,-0.501262 0.40184,0.004 0.504951,0.08478 0.612366,0.481625 0.102561,0.37887 0.0744,0.619262 -0.09043,0.774112 -0.10639,0.1 -0.159645,0.106214 -0.81287,0.0956 -0.810917,-0.0131 -0.873968,0.0071 -1.62109,0.506429 -0.251394,0.16816 -0.592199,0.345071 -0.787032,0.408761 -0.658484,0.21526 -0.727727,0.278666 -0.945162,0.864546 -0.04878,0.13145 -0.171776,0.334259 -0.273368,0.450619 -0.101591,0.11637 -0.315937,0.391569 -0.476457,0.611849 -0.16052,0.22029 -0.50972,0.62625 -0.77618,0.90227 -0.528483,0.54744 -0.737409,0.9017 -0.873849,1.48053 -0.102829,0.43626 -0.09642,0.806354 0.02274,1.272274 0.238789,0.933651 0.653622,1.222741 1.401982,0.977201 0.224576,-0.0737 0.542592,-0.120005 1.026294,-0.149345 0.385495,-0.0234 0.782693,-0.0581 0.882633,-0.077 0.239298,-0.0451 0.739969,0.08461 1.094507,0.283704 0.694823,0.390126 0.875795,0.662075 0.827856,1.243852 h 0.80822 c 0.06714,-0.17043 0.235079,-0.302824 0.467155,-0.302824 0.163097,0 0.23921,0.0315 0.353983,0.146244 0.05103,0.05103 0.08327,0.103335 0.10697,0.15658 h 0.649056 c -0.205974,-0.284445 -0.06942,-0.702322 0.287321,-0.843877 v -1.613338 c -0.140686,-0.395133 -0.245979,-0.815668 -0.245979,-1.087789 0,-0.319837 0.09371,-0.583081 0.245979,-0.736906 v -1.522904 c -0.01417,-0.01515 -0.03633,-0.03347 -0.04754,-0.04703 -0.243345,-0.29421 -0.382561,-0.904694 -0.238745,-1.048514 0.04804,-0.04806 0.163953,-0.06225 0.286287,-0.05116 v -1.885673 c -0.103853,-0.149132 -0.196728,-0.284956 -0.224275,-0.350883 -0.164646,-0.394054 -0.03636,-0.729131 0.224275,-0.79375 V 59.72338 c -0.339027,-0.07487 -0.576938,-0.06942 -0.671793,0.02532 -0.06634,0.0663 -0.07644,0.138672 -0.05013,0.365352 0.02701,0.23284 0.01686,0.301327 -0.0584,0.388607 -0.101608,0.117841 -0.252749,0.17033 -0.366902,0.12764 -0.180333,-0.0675 -0.197394,-0.294286 -0.04754,-0.633036 0.09709,-0.21949 0.09798,-0.23923 0.01912,-0.36897 -0.04587,-0.0755 -0.190998,-0.220771 -0.322978,-0.322461 -0.293013,-0.22576 -0.362033,-0.432576 -0.211873,-0.634586 0.07862,-0.105755 0.174657,-0.155845 0.307991,-0.149345 0.133334,0.0065 0.303571,0.06957 0.531234,0.190169 0.379413,0.201023 0.527921,0.227804 0.871264,0.148828 v -1.018542 c -0.444445,0.04098 -0.959133,0.05013 -1.152901,-0.0016 -0.12719,-0.034 -0.341544,-0.140715 -0.47594,-0.237195 -0.134396,-0.0965 -0.408232,-0.261593 -0.608748,-0.366903 -0.304401,-0.159872 -0.460446,-0.297271 -0.541569,-0.472839 h -1.060917 c -0.05201,0.121539 -0.151676,0.247584 -0.26355,0.313676 -0.188291,0.111217 -0.488867,0.102576 -0.689364,-0.01964 -0.0901,-0.05496 -0.182028,-0.175447 -0.242879,-0.294039 h -0.807703 c -0.07072,0.423377 -0.25089,0.697135 -0.897619,1.356506 -0.351667,0.35854 -0.70028,0.683747 -0.77463,0.722437 -0.229341,0.119324 -0.478995,0.08993 -0.644922,-0.07596 -0.08049,-0.0805 -0.146244,-0.191426 -0.146244,-0.246496 0,-0.14576 0.220282,-0.38462 0.569991,-0.61805 0.557655,-0.372228 0.875888,-0.768399 0.922424,-1.138432 h -1.157035 c -0.15947,0.366141 -0.601359,0.5458 -0.971517,0.363285 -0.09979,-0.04918 -0.224892,-0.213168 -0.299723,-0.363285 h -0.775147 c -0.0211,0.210294 -0.118434,0.424119 -0.247013,0.51418 -0.152482,0.106802 -0.406331,0.103798 -0.542086,-0.0062 -0.09221,-0.07467 -0.168298,-0.28885 -0.191719,-0.507979 h -0.787032 c 0.02701,0.105476 0.07761,0.252367 0.129707,0.3545 0.183674,0.36003 0.125096,0.717012 -0.137459,0.836642 -0.212138,0.0967 -0.367923,0.06512 -0.542602,-0.109554 -0.204406,-0.2044 -0.275076,-0.447737 -0.275436,-0.950847 v -0.130741 h -0.819071 c -0.0045,0.104191 -0.01435,0.236404 -0.02997,0.379305 -0.06455,0.59012 -0.194636,0.884576 -0.677994,1.533756 -0.53442,0.717762 -1.066082,0.957323 -1.752865,0.790133 v 5.17e-4 c -0.483775,-0.11778 -0.754725,-0.442626 -0.626835,-0.751376 0.10425,-0.251691 0.37814,-0.30615 0.982369,-0.19482 0.49735,0.0916 0.861642,-0.05511 1.053682,-0.424263 0.05254,-0.10104 0.201874,-0.957338 0.241329,-1.333252 h -1.718758 c 0.07428,0.07112 0.1959,0.136253 0.406694,0.214974 0.3538,0.13212 0.433377,0.339185 0.214457,0.558105 -0.10736,0.107363 -0.165781,0.122673 -0.463021,0.119373 -0.187127,-0.002 -0.407812,-0.03023 -0.490412,-0.06253 -0.28389,-0.11109 -0.37419,-0.187082 -0.57878,-0.488342 -0.12708,-0.187142 -0.21892,-0.292174 -0.3116,-0.341581 h -0.26407 c -0.0332,0.01174 -0.0621,0.0174 -0.10077,0.03617 -0.30077,0.146148 -0.57243,0.143814 -0.71365,-0.0067 -0.008,-0.0088 -0.0135,-0.01986 -0.0212,-0.02946 h -1.04903 c 0.0522,0.296167 0.12683,0.529783 0.22376,0.666109 0.1267,0.17819 0.50717,0.352135 0.94154,0.430465 0.43578,0.0786 0.6987,0.229181 0.81546,0.467671 0.0837,0.17095 0.0861,0.209615 0.0233,0.374655 -0.15307,0.40218 -0.65388,0.530809 -1.09295,0.281119 -0.31859,-0.18117 -0.46431,-0.330641 -0.84957,-0.871781 -0.36994,-0.51962 -0.71918,-0.872081 -0.96789,-0.975651 -0.0878,-0.0366 -0.30311,-0.09441 -0.47801,-0.128674 -0.23036,-0.04521 -0.41644,-0.139408 -0.51987,-0.243913 h -0.69918 l 0.0295,0.464054 c 0.0516,0.812 0.0119,1.018147 -0.23306,1.203027 -0.17126,0.129226 -0.48019,0.232127 -0.68678,0.228927 -0.0688,-10e-4 -0.28905,-0.05498 -0.48938,-0.119889 -0.71206,-0.23058 -0.88967,-0.497594 -0.75086,-1.130164 0.0532,-0.24267 0.0639,-0.410088 0.0341,-0.538468 -0.0105,-0.04533 -0.0148,-0.07274 -0.0217,-0.107487 h -0.88211 c 0.006,0.08283 0.006,0.189179 0.006,0.33538 7.8e-4,0.4166 -0.0872,0.639585 -0.2806,0.713135 -0.14764,0.0561 -0.20872,0.05613 -0.34469,5.16e-4 -0.25182,-0.10307 -0.37472,-0.419599 -0.37517,-0.966349 v -0.08268 h -0.79168 c -0.0234,0.04894 -0.0545,0.10016 -0.0894,0.141593 -0.17054,0.202694 -0.46295,0.216642 -0.64854,0.03101 -0.0586,-0.05857 -0.10102,-0.127704 -0.11317,-0.172599 h -0.74673 c 0.0367,0.08056 0.0854,0.178616 0.14005,0.277502 0.1586,0.28734 0.1972,0.401971 0.1726,0.514181 -0.0552,0.251331 -0.26487,0.36532 -0.55656,0.30334 -0.1553,-0.033 -0.72874,-0.362635 -0.81804,-0.470255 -0.0313,-0.0377 -0.007,-0.150829 0.0708,-0.330729 0.0465,-0.107593 0.0767,-0.20369 0.10594,-0.294039 h -1.83865 c -0.11226,0.178309 -0.40116,0.273838 -0.62529,0.174666 -0.0832,-0.0368 -0.16495,-0.103458 -0.2253,-0.174666 h -2.51923 c -0.0242,0.09623 -0.054,0.207726 -0.077,0.2682 -0.0808,0.21248 -0.061,0.39808 0.0734,0.68678 0.17621,0.37844 0.16564,0.56299 -0.0444,0.77308 -0.1894,0.1894 -0.40421,0.221458 -0.63665,0.09508 -0.0719,-0.03922 -0.16027,-0.142353 -0.19637,-0.229443 -0.0681,-0.16446 -0.0705,-0.145836 0.11834,-0.805636 0.048,-0.16762 0.0356,-0.216378 -0.1323,-0.536918 -0.0573,-0.109292 -0.0948,-0.183988 -0.12505,-0.251147 h -2.67529 c 0.0601,0.213403 0.25324,0.431964 0.4408,0.47904 0.10056,0.0252 0.2557,-0.004 0.52193,-0.0987 0.62161,-0.22087 0.80947,-0.08676 0.90227,0.644922 0.0263,0.20726 0.0959,0.534734 0.15451,0.727604 0.13406,0.44136 0.104,0.618263 -0.15554,0.913123 -0.21578,0.24517 -0.22868,0.311912 -0.14108,0.735872 0.0708,0.34252 0.0312,0.519577 -0.1571,0.707967 -0.16774,0.167736 -0.45547,0.195114 -0.64595,0.06201 -0.0641,-0.0449 -0.1489,-0.158401 -0.1881,-0.252181 -0.13223,-0.31648 0.0138,-0.600422 0.46974,-0.913122 0.21656,-0.14854 0.21102,-0.245059 -0.0579,-0.998389 -0.30067,-0.84244 -0.5351,-1.062901 -1.05472,-0.991671 -0.26465,0.0363 -0.55553,-0.0414 -0.70125,-0.187068 -0.12218,-0.12218 -0.28071,-0.519087 -0.33589,-0.829407 h -0.67076 c -0.049,0.07388 -0.11402,0.141183 -0.17777,0.174149 -0.17159,0.0887 -0.38816,0.08443 -0.74363,-0.01447 h -5.1e-4 c -0.22633,-0.063 -0.33538,-0.06677 -0.61392,-0.02067 -0.54069,0.08959 -0.75392,0.05507 -0.87126,-0.139009 z m 19.54971,0 -0.003,0.03617 c -0.0187,0.25909 -0.006,0.307469 0.11576,0.452169 0.18688,0.222098 0.39977,0.324908 0.59738,0.287838 0.26204,-0.04917 0.51506,-0.388279 0.59428,-0.77618 z m 22.102525,0 c 0.04218,0.0745 0.09617,0.147555 0.147795,0.181384 0.254443,0.166723 1.039866,0.255607 1.462959,0.188619 v -0.370003 z m -31.447695,0.211873 c 0.0448,0.0012 0.0915,0.0087 0.14056,0.02274 0.19618,0.05634 0.42991,0.217151 0.72554,0.489376 0.22203,0.20444 0.46588,0.385579 0.54208,0.402559 0.0762,0.017 0.17696,0.04114 0.22376,0.05374 0.17087,0.0461 0.50463,-0.09117 0.73433,-0.302308 0.12754,-0.11723 0.28743,-0.251099 0.35553,-0.297139 0.16638,-0.112554 0.55889,-0.110152 0.69763,0.0041 l 0.10646,0.08733 -0.25529,0.425814 c -0.38433,0.64156 -0.49626,0.79228 -0.66921,0.89917 -0.21239,0.13126 -0.51099,0.163978 -0.75447,0.0832 -0.11014,-0.0366 -0.34657,-0.129092 -0.52555,-0.205672 -0.17898,-0.0766 -0.52949,-0.203207 -0.77928,-0.281637 -0.2498,-0.0784 -0.53107,-0.194178 -0.62477,-0.257348 -0.38842,-0.26176 -0.52066,-0.721123 -0.2775,-0.964283 0.10914,-0.109157 0.22586,-0.163201 0.36018,-0.15968 z m 23.718968,0.882634 c 0.160312,-0.01285 0.282417,0.0468 0.411861,0.176216 0.401112,0.40111 0.138958,0.690739 -0.997872,1.102259 -1.111473,0.40234 -1.451431,0.684817 -1.790588,1.487247 -0.266361,0.6302 -1.028,1.593994 -1.41025,1.784904 -0.298316,0.148997 -0.586672,0.147596 -0.729155,-0.0036 v -5.17e-4 c -0.06982,-0.0743 -0.10852,-0.179976 -0.10852,-0.294556 0,-0.20536 0.150697,-0.35816 0.700216,-0.709 0.415192,-0.26509 0.796594,-0.755318 1.213362,-1.559078 0.386991,-0.74634 0.617526,-0.989836 1.19786,-1.265556 0.234534,-0.11142 0.626461,-0.317256 0.870748,-0.457336 0.283446,-0.162526 0.482025,-0.248116 0.642338,-0.260966 z m -17.324008,0.03152 c 0.27579,0 0.46854,0.12822 0.60875,0.40411 0.0861,0.16941 0.10029,0.29497 0.0997,0.89762 -5.3e-4,0.57818 -0.0203,0.76714 -0.11265,1.07952 -0.0616,0.20827 -0.11156,0.501433 -0.1111,0.651123 10e-4,0.45582 0.11836,0.598254 0.97668,1.185974 1.11199,0.76142 1.27537,0.944418 1.27537,1.431438 0,0.25696 -0.12207,0.583427 -0.21807,0.583427 -0.0365,0 -0.19965,-0.129508 -0.36277,-0.287838 h -5.2e-4 c -0.16312,-0.15833 -0.4089,-0.433246 -0.54622,-0.610816 -0.19245,-0.24888 -0.4005,-0.42686 -0.9095,-0.77618 -0.74339,-0.51018 -0.92837,-0.671218 -1.03973,-0.905888 -0.11564,-0.24369 -0.0948,-0.534318 0.077,-1.068668 0.19868,-0.61774 0.18843,-0.967815 -0.0444,-1.490865 -0.20091,-0.45103 -0.21338,-0.749957 -0.0393,-0.952397 0.0992,-0.11532 0.16125,-0.14056 0.34675,-0.14056 z m 5.89732,0.273885 c 0.0837,-0.0042 0.16736,0.01244 0.25269,0.05064 0.17067,0.0764 0.34873,0.239259 0.55087,0.496094 0.16434,0.20882 0.45556,0.523049 0.64699,0.698149 0.38742,0.35438 0.49506,0.522525 0.49506,0.772045 0,0.25792 -0.26848,0.462739 -0.52348,0.399459 -0.19806,-0.0491 -0.33589,-0.18512 -0.53743,-0.5302 -0.25295,-0.43311 -0.37311,-0.548134 -0.79841,-0.762744 -0.40066,-0.20219 -0.54363,-0.366545 -0.54363,-0.625285 0,-0.25903 0.0383,-0.338763 0.2036,-0.424263 0.0862,-0.04458 0.17002,-0.06968 0.25374,-0.0739 z m -3.9424,0.345716 c 0.10742,0.0042 0.21084,0.04946 0.27802,0.134875 0.23548,0.29936 0.0538,0.769462 -0.29714,0.769462 -0.0975,0 -0.2,-0.04551 -0.2775,-0.12299 -0.16952,-0.16925 -0.17332,-0.513419 -0.007,-0.669209 h 5.2e-4 c 0.0845,-0.07938 0.19592,-0.116314 0.30334,-0.112138 z m 11.813749,0.06098 c 0.08754,7.69e-4 0.173424,0.03545 0.254765,0.10542 0.113992,0.0981 0.139343,0.159836 0.136943,0.334346 -0.0038,0.27775 -0.06918,0.370843 -0.704867,1.004073 -0.292015,0.29088 -0.632116,0.664197 -0.756026,0.829407 -0.24555,0.32739 -0.559954,0.525549 -0.833024,0.525549 -0.0884,0 -0.359094,-0.04732 -0.601514,-0.104903 -0.37024,-0.0879 -0.471909,-0.09499 -0.635616,-0.04599 -0.28998,0.0869 -0.41618,0.255459 -0.51108,0.682129 -0.0455,0.20439 -0.12007,0.415305 -0.16537,0.468705 -0.10577,0.12464 -0.30464,0.166838 -0.43253,0.09198 -0.23883,-0.13984 -0.24563,-0.184751 -0.14573,-0.978751 0.0413,-0.32797 -0.0317,-0.452368 -0.40617,-0.691948 -0.30004,-0.19191 -0.37414,-0.29413 -0.37414,-0.51418 0,-0.22654 0.14253,-0.364571 0.40617,-0.394291 0.24502,-0.0276 0.46414,0.0583 0.88677,0.347782 0.39962,0.273755 0.71913,0.353634 1.285195,0.321944 1.05663,-0.0591 1.514903,-0.341743 1.832963,-1.130163 0.148439,-0.36796 0.321447,-0.624442 0.498161,-0.753959 0.08836,-0.06474 0.177558,-0.09792 0.2651,-0.09715 z m -15.619719,0.0041 c 0.50818,0.06617 0.94214,0.536976 0.71262,0.980819 -0.12566,0.243001 -0.37994,0.327741 -0.76481,0.255281 -0.7583,-0.14277 -1.04171,-0.854021 -0.45889,-1.151351 0.16417,-0.08375 0.34169,-0.106808 0.51108,-0.08475 z m -10.03711,0.08113 c 0.12734,-0.003 0.25331,0.04867 0.36018,0.155546 0.19029,0.19025 0.19288,0.429496 0.0109,0.966866 l -0.13539,0.399459 0.094,0.332279 c 0.0515,0.1828 0.10281,0.446778 0.11421,0.586528 0.0179,0.21917 0.002,0.276321 -0.11317,0.413411 -0.11184,0.132906 -0.16876,0.158647 -0.34779,0.158647 -0.1413,0 -0.25904,-0.03534 -0.34674,-0.104386 -0.26748,-0.21039 -0.30408,-0.353937 -0.29508,-1.145667 0.0118,-1.003 0.081,-1.380164 0.29094,-1.590084 0.11211,-0.112109 0.2406,-0.169599 0.36794,-0.172599 z m -4.56768,0.286804 c 0.21513,-0.003 0.24745,0.01259 0.35243,0.166915 0.1365,0.20074 0.15129,0.48271 0.0341,0.65009 -0.0752,0.1074 -0.36316,0.26504 -0.45476,0.24908 -0.0215,-0.004 -0.0889,-0.01611 -0.14986,-0.02791 h -5.1e-4 c -0.061,-0.0118 -0.17018,-0.09243 -0.24288,-0.178801 -0.17523,-0.2083 -0.1465,-0.48503 0.0729,-0.70435 0.12451,-0.12451 0.19385,-0.152329 0.38861,-0.155029 z m 9.93221,0.140043 h 5.1e-4 c 0.23636,0.0291 0.46531,0.125498 0.80874,0.303858 0.73758,0.38305 1.40703,0.577369 2.16886,0.629419 l 0.60255,0.04134 0.69195,0.335897 c 0.76093,0.36934 1.03854,0.59356 1.13584,0.91829 0.12851,0.42893 -0.0819,0.808736 -0.44803,0.808736 -0.26124,0 -0.46645,-0.173342 -0.66094,-0.558622 -0.34444,-0.68232 -1.04257,-1.144684 -1.4919,-0.988054 -0.32941,0.11482 -0.33868,0.386125 -0.03,0.904855 0.27149,0.45613 0.35316,0.860347 0.19688,0.974617 -0.12637,0.09244 -0.51227,0.08324 -0.71623,-0.01705 h -5.2e-4 c -0.0923,-0.04561 -0.22734,-0.173007 -0.30024,-0.283187 -0.12529,-0.18908 -0.13229,-0.235249 -0.13229,-0.805119 0,-0.69171 -0.0619,-0.852715 -0.42271,-1.102775 -0.49188,-0.340875 -1.54437,-0.480064 -2.03761,-0.269234 -0.0786,0.0336 -0.2979,0.151226 -0.48679,0.260966 -0.26982,0.156749 -0.39652,0.200288 -0.59221,0.203088 -0.21313,0.003 -0.26656,-0.01671 -0.37,-0.136942 -0.16171,-0.18828 -0.15968,-0.431712 0.006,-0.628902 0.1497,-0.1779 0.49069,-0.31484 1.22473,-0.49196 0.37343,-0.09012 0.61733,-0.128318 0.8537,-0.09922 z m 30.293756,0.08268 c 0.164104,-0.01012 0.291772,0.04011 0.397909,0.146244 0.239669,0.23967 0.175202,0.565283 -0.146762,0.742073 -0.100422,0.0551 -0.296908,0.137615 -0.436665,0.182935 -0.153774,0.0499 -0.361204,0.177475 -0.52555,0.323495 -0.149364,0.13271 -0.321232,0.267316 -0.381372,0.299206 -0.186024,0.0986 -0.40901,0.07 -0.549837,-0.0708 -0.109487,-0.10944 -0.125006,-0.161761 -0.104386,-0.344681 0.03237,-0.28723 0.147714,-0.434994 0.550354,-0.706934 0.438682,-0.29628 0.766043,-0.473422 1.019576,-0.541052 0.06338,-0.01691 0.122032,-0.02712 0.176733,-0.03049 z m -20.125386,0.07028 c 0.17426,0.0031 0.34692,0.09682 0.51005,0.277502 0.21768,0.24092 0.26748,0.443717 0.15968,0.652157 -0.17428,0.337038 -0.6156,0.449768 -0.93225,0.238228 -0.47799,-0.31928 -0.42775,-0.970369 0.0878,-1.140499 0.0581,-0.01918 0.11658,-0.02842 0.17467,-0.02739 z m 14.742252,0.238228 c 0.06477,0.0053 0.128167,0.01899 0.188619,0.03979 0.241807,0.0832 0.432015,0.284261 0.432015,0.555521 0,0.20897 -0.07411,0.299899 -0.496094,0.611849 -0.367008,0.27131 -0.518539,0.497831 -0.544669,0.812871 -0.02858,0.34462 0.05846,0.701997 0.224792,0.920357 0.130353,0.17112 0.45946,0.354067 0.640788,0.356567 0.249387,0.003 0.483042,0.111341 0.577742,0.266651 0.341368,0.55985 -0.353778,1.074736 -0.975651,0.722436 -0.231111,-0.13092 -0.937894,-0.913338 -1.092439,-1.209228 -0.143839,-0.27539 -0.134582,-0.658795 0.02584,-1.080555 0.08282,-0.21775 0.134266,-0.480633 0.155546,-0.794783 0.04054,-0.5984 0.10625,-0.812734 0.310058,-1.010274 0.15491,-0.150144 0.359152,-0.207239 0.553455,-0.191203 z m -32.468822,0.111621 c 0.0563,0.0044 0.1099,0.01408 0.16123,0.02946 0.26516,0.0794 0.43615,0.270665 0.43615,0.487825 0,0.37663 -0.191,0.507524 -0.8294,0.567924 -0.61845,0.0585 -0.8637,0.184179 -1.30018,0.666109 -0.40368,0.44571 -0.62629,0.58291 -0.94723,0.58291 -0.19281,0 -0.26122,-0.0261 -0.38137,-0.146244 -0.30161,-0.3016 -0.13015,-0.61715 0.51883,-0.95498 0.2407,-0.12529 0.60529,-0.36253 0.81028,-0.5271 0.62266,-0.499844 1.13765,-0.736822 1.53169,-0.7059 z m -4.06125,0.05839 c 0.27805,-0.0109 0.55346,0.240466 0.55346,0.54312 0,0.432582 -0.45095,0.667372 -0.83354,0.434082 -0.38784,-0.23649 -0.29136,-0.806474 0.16174,-0.956014 0.039,-0.01288 0.0786,-0.01963 0.11834,-0.02119 z m 23.37842,0.130225 c 0.0725,-0.0074 0.14684,0.0104 0.22583,0.05426 0.15798,0.08774 0.33406,0.2811 0.54777,0.590145 0.4069,0.58846 0.56048,0.934984 0.70538,1.590084 0.0687,0.31061 0.1839,0.704765 0.2558,0.875915 0.23087,0.54941 0.3704,0.958276 0.37052,1.086756 7e-5,0.0688 -0.0562,0.339417 -0.12506,0.600997 -0.16504,0.62701 -0.0993,0.930164 0.22686,1.043864 0.2982,0.10396 0.58565,-0.09316 0.786,-0.539502 0.1731,-0.38556 0.37347,-0.64668 0.68988,-0.89917 0.15109,-0.12056 0.36776,-0.346135 0.48162,-0.500745 0.29035,-0.39432 0.43498,-0.505612 0.65578,-0.505912 0.28218,-3.8e-4 0.44782,0.168029 0.47852,0.487309 0.0354,0.36806 -0.0918,0.548692 -0.6041,0.858862 -0.47038,0.28477 -0.61635,0.429 -0.9865,0.97255 -0.14664,0.21533 -0.34682,0.457015 -0.44442,0.537435 -0.20249,0.16691 -0.63279,0.321032 -1.10691,0.395842 -0.36042,0.05692 -0.36314,0.05656 -0.57567,0.0057 -0.54629,-0.13183 -0.69273,-0.530927 -0.46819,-1.274857 0.208,-0.68914 0.15803,-1.024447 -0.41703,-2.784327 -0.27338,-0.83661 -0.46634,-1.247206 -0.81804,-1.743046 -0.27093,-0.38194 -0.29665,-0.595543 -0.092,-0.756543 0.0709,-0.0558 0.14148,-0.08825 0.21394,-0.0956 z m -3.23133,0.261483 c 0.21726,0.02827 0.40334,0.253392 0.5917,0.702799 0.24149,0.57624 0.42525,0.677245 1.23145,0.679545 0.23636,6.8e-4 0.48561,0.03098 0.57981,0.07028 0.44219,0.18476 0.51865,0.707392 0.13281,0.906922 -0.15601,0.0807 -0.74714,0.09629 -1.03663,0.02739 -0.26772,-0.0637 -0.54173,-0.262547 -0.80771,-0.584977 -0.16694,-0.20237 -0.37781,-0.381789 -0.61753,-0.525549 -0.20051,-0.12024 -0.41552,-0.2944 -0.47852,-0.38809 -0.203,-0.30201 -0.1145,-0.731935 0.1757,-0.852145 0.0806,-0.03338 0.1565,-0.0456 0.22892,-0.03617 z m 14.255463,0.234094 c 0.108012,-0.0134 0.212655,0.01628 0.293522,0.09715 0.198622,0.19862 0.18626,0.377558 -0.06873,0.977718 -0.150248,0.35363 -0.161624,0.614465 -0.04909,1.158585 0.05271,0.2549 0.07158,0.507273 0.05323,0.718303 -0.03396,0.39069 -0.257845,1.355527 -0.360702,1.554427 -0.15465,0.29906 -0.503981,0.39294 -0.718302,0.19327 -0.135016,-0.12579 -0.206706,-0.299068 -0.206706,-0.500228 0,-0.13775 0.03971,-0.265429 0.311092,-0.996839 0.08699,-0.23444 0.107406,-0.446396 0.136426,-1.426786 0.03012,-1.01777 0.04595,-1.178395 0.13901,-1.385445 0.08099,-0.180195 0.218031,-0.307689 0.361735,-0.362769 0.03593,-0.01377 0.07252,-0.02292 0.10852,-0.02739 z m -22.535063,0.503328 c 0.16844,-0.01083 0.31869,0.005 0.42789,0.05478 0.14133,0.0644 0.27388,0.274839 0.27388,0.434599 0,0.17113 -0.23991,0.40003 -0.50074,0.47749 -0.38433,0.11413 -0.98785,0.140424 -1.25522,0.05478 h -5.2e-4 c -0.12602,-0.0403 -0.26966,-0.118196 -0.31936,-0.173116 -0.0845,-0.0936 -0.0856,-0.107722 -0.007,-0.226342 0.2078,-0.317138 0.87598,-0.589696 1.38131,-0.622185 z m -2.49752,0.36587 c 0.0669,0.0026 0.13578,0.01295 0.20671,0.03152 0.28079,0.0735 0.58911,0.27752 0.58911,0.38964 0,0.1214 -0.33349,0.437714 -0.56172,0.532784 -0.24359,0.101477 -0.41815,0.09616 -0.67335,-0.01964 -0.36759,-0.16692 -0.40613,-0.471194 -0.094,-0.745174 0.15177,-0.133255 0.3327,-0.196898 0.5333,-0.189135 z m 28.167276,0.08733 c 0.02829,-1.81e-4 0.06046,0.0035 0.09922,0.0098 0.20674,0.0335 0.442363,0.235906 0.488343,0.419096 0.106246,0.42331 -0.377909,0.822361 -0.713135,0.587561 -0.154126,-0.10795 -0.260966,-0.33328 -0.260966,-0.54932 0,-0.1356 0.03854,-0.21992 0.152445,-0.33383 0.09812,-0.09811 0.149214,-0.132784 0.234095,-0.133325 z m -33.300296,0.04289 c 0.23583,0 0.39171,0.147333 0.39171,0.370003 0,0.15763 -0.0442,0.227166 -0.32143,0.506946 -0.3154,0.318228 -0.32655,0.324528 -0.58808,0.324528 -0.21626,0 -0.28942,-0.02331 -0.38912,-0.12299 -0.15282,-0.15285 -0.15616,-0.314439 -0.0103,-0.527099 0.14727,-0.21488 0.70705,-0.551388 0.91725,-0.551388 z m 21.91753,0.100252 c 0.39634,0 0.56936,0.334822 0.61546,1.192692 0.0265,0.49295 0.0179,0.613272 -0.0522,0.748792 -0.046,0.0888 -0.10356,0.16123 -0.12816,0.16123 -0.0246,0 -0.0795,0.01347 -0.12247,0.02997 -0.0479,0.0184 -0.13414,-0.02619 -0.22324,-0.115239 -0.109,-0.10896 -0.1546,-0.213402 -0.1819,-0.418062 -0.02,-0.15001 -0.0901,-0.428424 -0.15607,-0.619084 -0.2177,-0.62957 -0.12899,-0.980302 0.24857,-0.980302 z m -18.35702,0.413929 c 0.0572,0.0013 0.11349,0.0151 0.17311,0.03979 0.38858,0.16096 0.24202,0.591199 -0.35915,1.054199 -0.73663,0.567346 -0.90946,0.614466 -1.92649,0.526066 -0.40703,-0.0354 -0.49121,-0.02678 -0.8723,0.08992 -0.46616,0.14269 -0.58165,0.153588 -0.72967,0.06873 -0.25023,-0.1435 -0.29544,-0.421334 -0.11266,-0.692464 0.1078,-0.159912 0.1365,-0.171092 0.66353,-0.258382 0.43014,-0.0712 0.68894,-0.08413 1.18235,-0.05943 0.78685,0.0394 0.90179,0.0046 1.35134,-0.408244 0.18706,-0.17166 0.32857,-0.276021 0.45269,-0.325561 0.0621,-0.02475 0.12008,-0.03594 0.17725,-0.03462 z m 21.905639,0.495577 c 0.303452,0.007 0.534793,0.250964 0.687813,0.72657 0.21057,0.65446 0.461038,0.835359 1.139465,0.822689 0.523212,-0.01 0.675601,0.05957 0.780831,0.355017 0.04189,0.11761 0.08868,0.33837 0.10387,0.49041 0.01519,0.15204 0.08414,0.443128 0.153479,0.646988 0.197032,0.5793 0.15924,0.874043 -0.135393,1.053683 -0.190271,0.116 -0.304647,0.12269 -0.518831,0.02945 -0.08494,-0.037 -0.205374,-0.131879 -0.267684,-0.210839 -0.122591,-0.15533 -0.122069,-0.270132 0.001,-0.820622 0.05448,-0.24358 0.05122,-0.298328 -0.02791,-0.465088 -0.121803,-0.25669 -0.319287,-0.347927 -0.802535,-0.371037 -0.22028,-0.0105 -0.450613,-0.02966 -0.512113,-0.04237 -0.17269,-0.0358 -0.442315,-0.299374 -0.558105,-0.545704 -0.0576,-0.12248 -0.198796,-0.375796 -0.313676,-0.562756 -0.35455,-0.57697 -0.300638,-1.013224 0.135392,-1.095024 0.04628,-0.0087 0.09101,-0.01237 0.134359,-0.01137 z m 2.897497,0.14211 c 0.420601,0 0.599629,0.453026 0.298173,0.754476 -0.186721,0.186719 -0.409626,0.195982 -0.581876,0.02377 -0.158407,-0.15841 -0.167273,-0.458132 -0.01912,-0.646472 0.08099,-0.102955 0.14758,-0.131775 0.302824,-0.131775 z m -17.338476,0.05271 c 0.13756,0.0046 0.27804,0.02983 0.36225,0.07338 0.41928,0.21684 0.37885,0.968239 -0.0605,1.121379 -0.20887,0.0728 -0.24093,0.06989 -0.42168,-0.04031 -0.19595,-0.11948 -0.32039,-0.422634 -0.32039,-0.780314 0,-0.21825 0.0191,-0.283038 0.0966,-0.324528 0.0714,-0.03825 0.20608,-0.05423 0.34365,-0.04961 z m 28.33212,0.09767 c 0.38007,0 0.690719,0.350717 0.749309,0.845427 0.03976,0.335707 -0.04327,0.406416 -0.475424,0.406176 -0.246996,-1.4e-4 -0.377805,-0.02667 -0.500227,-0.101285 -0.336979,-0.20546 -0.381153,-0.629403 -0.101286,-0.968933 0.120632,-0.146345 0.183747,-0.181385 0.327628,-0.181385 z m -41.16079,0.0217 c 0.0457,0.0043 0.0881,0.01423 0.12609,0.02997 0.30259,0.12532 0.33797,0.472312 0.0822,0.807702 -0.24969,0.32736 -0.45069,0.442351 -0.77256,0.442351 -0.2334,0 -0.29255,-0.02077 -0.41806,-0.146245 -0.17943,-0.1794 -0.19007,-0.374755 -0.0331,-0.607715 0.21507,-0.319138 0.69519,-0.556185 1.01545,-0.526066 z m 7.53339,0.09405 c 0.14687,0.0086 0.32441,0.02541 0.49712,0.04806 0.44551,0.05784 0.80286,0.07264 1.22939,0.05064 0.66101,-0.034 0.95796,0.02107 1.449,0.269751 0.38701,0.19599 0.54879,0.338597 0.93896,0.827857 0.44544,0.55857 0.62241,0.688137 1.17771,0.864547 0.53733,0.17069 0.76429,0.363012 0.76429,0.646472 0,0.403394 -0.48367,0.564434 -0.96583,0.321944 -0.43381,-0.21817 -1.00267,-0.677887 -1.50792,-1.219047 -0.55494,-0.59439 -0.85213,-0.798029 -1.38131,-0.945679 -0.46559,-0.1299 -0.79355,-0.145106 -1.31361,-0.06098 -0.26818,0.04339 -0.71359,0.07906 -0.99012,0.07906 -0.78475,0 -0.97553,0.137909 -0.94103,0.680579 l 0.016,0.244429 0.40411,0.05168 c 0.63157,0.0807 0.78048,0.229942 0.87178,0.873332 0.0276,0.19484 0.0988,0.519476 0.15813,0.720886 0.1172,0.39834 0.10311,0.572263 -0.0589,0.734323 -0.10715,0.10715 -0.36565,0.129947 -0.5116,0.04496 -0.13378,-0.0779 -0.21984,-0.284607 -0.28784,-0.691947 -0.0381,-0.227988 -0.1284,-0.497323 -0.23461,-0.700733 -0.0949,-0.18177 -0.2168,-0.467917 -0.2713,-0.636137 l -0.0992,-0.305924 -0.32194,-0.02997 c -0.4086,-0.0382 -0.61307,-0.143625 -0.70487,-0.363285 -0.14375,-0.34403 0.047,-0.586516 0.60927,-0.773596 0.2527,-0.0841 0.41033,-0.181153 0.65577,-0.403593 0.21872,-0.19821 0.38199,-0.303962 0.5054,-0.327112 0.0501,-0.0094 0.1663,-0.0091 0.31316,-5.17e-4 z m 7.11429,0.11989 c 0.0378,0.0033 0.0755,0.01064 0.11265,0.0217 0.14851,0.0443 0.28746,0.150333 0.38396,0.308508 0.13189,0.21624 0.12359,0.330056 -0.0537,0.756026 -0.23328,0.560371 -0.50097,0.755472 -0.83406,0.608232 -0.21924,-0.0969 -0.31633,-0.308527 -0.31574,-0.688847 5.8e-4,-0.37529 0.16843,-0.785097 0.37723,-0.921907 0.0679,-0.04447 0.14147,-0.07121 0.21653,-0.08113 0.0376,-0.005 0.0754,-0.0058 0.11317,-0.0026 z m 5.77329,0.228926 c 0.55064,0.05777 0.86646,0.505604 0.54312,0.889869 -0.24415,0.290161 -0.56737,0.359201 -1.02423,0.218591 -0.76021,-0.23398 -0.59512,-1.022573 0.23203,-1.107943 0.0871,-0.009 0.17042,-0.0088 0.24908,-5.17e-4 z m 18.851563,0.161231 c 0.04319,0.0014 0.08665,0.0087 0.129192,0.02274 0.221898,0.0732 0.341463,0.232046 0.473356,0.628386 0.0835,0.25092 0.180738,0.404319 0.435115,0.685229 0.492789,0.544205 0.481975,0.538017 0.892452,0.503846 0.326727,-0.0272 0.363259,-0.01963 0.499711,0.09767 0.191462,0.1647 0.187541,0.379124 -0.01654,0.887284 -0.08293,0.20651 -0.175956,0.540837 -0.206706,0.743107 -0.07349,0.48341 -0.162179,0.644831 -0.419612,0.761711 -0.227303,0.1032 -0.365129,0.108618 -0.931727,0.03772 -0.449754,-0.0563 -0.618662,-0.122959 -0.964799,-0.381889 -0.146082,-0.10928 -0.439714,-0.270744 -0.652673,-0.358634 -0.243669,-0.10058 -0.436338,-0.218127 -0.519348,-0.316777 -0.13853,-0.16463 -0.138121,-0.162336 -0.05736,-0.931726 0.0113,-0.10764 -0.02028,-0.13153 -0.279569,-0.20929 -0.342904,-0.10284 -0.459655,-0.195857 -0.535885,-0.426847 -0.144516,-0.43789 0.289284,-0.83111 0.718819,-0.65164 0.2217,0.0926 0.30843,0.304129 0.2651,0.646989 -0.07207,0.570275 -0.110844,0.510935 0.418579,0.641305 0.277142,0.0682 0.508113,0.301053 0.596863,0.601513 0.106371,0.36012 0.237431,0.530358 0.480591,0.623218 0.577111,0.2204 1.304465,-0.244688 1.364775,-0.872298 0.02652,-0.27604 -0.07754,-0.531563 -0.237712,-0.582393 -0.05556,-0.0176 -0.224612,-0.0057 -0.375688,0.02532 -0.446099,0.0926 -0.639481,0.0038 -0.974617,-0.448035 -0.1339,-0.18046 -0.303855,-0.384362 -0.377755,-0.453202 -0.181576,-0.16914 -0.324756,-0.461218 -0.324528,-0.661458 3.85e-4,-0.339142 0.297627,-0.62172 0.599963,-0.611849 z m -38.958863,0.947229 c 0.0647,-7.99e-4 0.12666,0.0088 0.18759,0.02894 0.47868,0.15798 0.41429,0.646382 -0.15038,1.141532 -0.30466,0.26716 -0.58997,0.327179 -0.90434,0.190169 -0.20547,-0.0895 -0.29539,-0.211045 -0.29507,-0.398425 3.7e-4,-0.21744 0.12969,-0.394451 0.48007,-0.657841 0.27137,-0.204026 0.48805,-0.301977 0.68213,-0.304375 z m 32.898768,0.0036 c 0.306461,0 0.50152,0.132774 0.59893,0.408244 0.08786,0.24845 0.04462,0.435461 -0.144177,0.624251 -0.116577,0.116567 -0.187236,0.144178 -0.373621,0.144178 -0.191936,0 -0.260887,-0.02849 -0.417029,-0.171566 -0.172948,-0.1585 -0.187068,-0.192425 -0.187068,-0.449585 0,-0.23714 0.02063,-0.298639 0.139009,-0.417029 0.113968,-0.113973 0.182389,-0.138493 0.383956,-0.138493 z m -24.101368,0.05374 c 0.32419,0.01139 0.70336,0.156231 0.94878,0.427881 0.18495,0.20474 0.2364,0.46382 0.11575,0.58446 -0.0762,0.07615 -0.62409,0.072 -0.99115,-0.0078 -0.50298,-0.10947 -0.72397,-0.310806 -0.69247,-0.631486 0.0258,-0.26212 0.2949,-0.384494 0.61909,-0.373104 z m -4.90306,0.05426 c 0.25149,0.007 0.40652,0.137675 0.66146,0.558105 0.13159,0.21703 0.33778,0.462461 0.52244,0.621151 0.83062,0.71387 1.08733,1.038284 1.08831,1.376144 9.6e-4,0.332382 -0.38581,0.481702 -0.66973,0.258382 -0.0733,-0.0576 -0.22023,-0.23232 -0.32659,-0.38809 -0.24613,-0.36047 -0.33357,-0.439747 -0.93483,-0.848527 -0.37314,-0.25369 -0.53111,-0.396304 -0.64544,-0.582394 -0.29986,-0.48806 -0.14098,-1.007401 0.30438,-0.994771 z m -2.09962,0.02687 c 0.0473,-0.0016 0.0967,0.0023 0.1478,0.01189 0.39393,0.0739 0.80309,0.682391 0.85679,1.274341 0.0226,0.24941 0.0108,0.301989 -0.093,0.420129 -0.14503,0.164995 -0.36628,0.208805 -0.57775,0.114205 -0.37574,-0.16807 -0.80174,-0.751916 -0.84904,-1.163236 -0.043,-0.373459 0.18407,-0.646321 0.51521,-0.657324 z m 18.3162,0.404109 c 0.088,-0.0068 0.17942,0.0017 0.26872,0.02842 0.44587,0.13358 0.62918,0.608469 0.34468,0.892969 -0.18528,0.18528 -0.63633,0.22047 -0.87798,0.06873 -0.20328,-0.127866 -0.33808,-0.394104 -0.29198,-0.577743 0.0583,-0.232084 0.29242,-0.391968 0.55656,-0.412378 z m 6.147427,0.236678 c 0.09332,0.011 0.173906,0.05649 0.236161,0.135393 0.15301,0.1939 0.11249,0.462341 -0.12609,0.835091 -0.211205,0.33004 -0.27922,0.660771 -0.1757,0.854211 0.03488,0.0653 0.189981,0.186168 0.344681,0.268718 0.15469,0.0825 0.348899,0.220588 0.431499,0.306958 0.12608,0.1318 0.150378,0.197474 0.150378,0.408244 0,0.22039 -0.02031,0.269191 -0.163814,0.397391 -0.18219,0.16279 -0.385511,0.186552 -0.641821,0.07493 -0.223328,-0.0972 -0.357531,-0.295377 -0.420131,-0.620117 -0.0302,-0.15665 -0.0674,-0.340927 -0.0822,-0.409277 -0.0148,-0.0684 -0.1583,-0.25097 -0.31936,-0.40566 -0.34066,-0.32718 -0.40557,-0.517842 -0.27906,-0.820622 0.1171,-0.28027 0.57027,-0.870164 0.73329,-0.954464 0.112762,-0.05831 0.218813,-0.0818 0.312127,-0.0708 z m -11.637017,0.180351 c 0.1657,-0.01565 0.31921,0.04289 0.43357,0.178801 0.11694,0.13897 0.12582,0.182997 0.11782,0.637687 -0.009,0.50754 -0.0113,0.496643 0.27388,1.023193 0.28472,0.52561 0.10402,1.180601 -0.34623,1.255221 -0.0808,0.0134 -0.19653,0.0036 -0.25683,-0.02222 -0.22202,-0.09344 -0.28082,-0.26682 -0.27182,-0.803569 0.01,-0.57503 -0.0426,-0.740429 -0.31729,-0.999939 -0.39232,-0.37066 -0.43828,-0.701699 -0.13849,-1.001489 0.16201,-0.162015 0.33969,-0.252033 0.50539,-0.267684 z m -4.28501,0.390674 c 0.0382,-0.0121 0.0783,-0.01076 0.12816,0.0015 0.32959,0.081 0.50029,0.299915 0.66456,0.852145 0.0573,0.19275 0.16959,0.500606 0.24959,0.684196 0.17887,0.4106 0.18921,0.688609 0.0326,0.860929 -0.14788,0.162661 -0.27727,0.192411 -0.47129,0.108521 -0.21217,-0.0917 -0.27164,-0.219513 -0.32504,-0.699183 -0.0352,-0.31678 -0.0884,-0.48895 -0.24547,-0.79685 -0.25748,-0.50456 -0.30143,-0.779633 -0.14882,-0.932243 0.0414,-0.04135 0.0776,-0.06697 0.11575,-0.07906 z m 17.29507,0.02842 c 0.18748,0 0.251014,0.02729 0.393774,0.170016 0.352343,0.35236 0.145578,0.881083 -0.344682,0.881083 -0.14715,0 -0.265983,-0.03396 -0.350883,-0.100769 -0.0706,-0.0555 -0.154335,-0.179396 -0.186035,-0.275436 -0.12556,-0.38045 0.08735,-0.674894 0.487826,-0.674894 z m 4.032828,0.199471 c 0.935268,0 1.378166,0.79112 0.563273,1.00614 -0.111325,0.0294 -0.399299,0.141767 -0.640271,0.249597 -0.508293,0.227448 -0.722857,0.247364 -0.879016,0.08113 -0.23961,-0.25505 -0.159323,-0.678961 0.195337,-1.029911 0.224708,-0.222348 0.434294,-0.306958 0.760677,-0.306958 z m -31.487998,0.150895 c 0.22885,4.8e-4 0.41856,0.14703 0.63665,0.49196 0.20646,0.32653 0.35491,0.428897 0.74052,0.511597 0.44241,0.0949 0.75723,0.374279 1.08728,0.964799 0.15577,0.27867 0.17804,0.631821 0.0548,0.870231 -0.12151,0.23497 -0.57324,0.705331 -0.80305,0.836641 -0.21789,0.124504 -0.47411,0.179164 -0.68161,0.144694 -0.63487,-0.10547 -1.57261,-0.670789 -1.78077,-1.073319 -0.12252,-0.23688 -0.0919,-0.481224 0.0811,-0.654224 0.13014,-0.130123 0.17867,-0.148703 0.33073,-0.124023 0.24444,0.0397 0.39659,0.149876 0.58394,0.422196 0.40115,0.58306 0.65132,0.750669 1.04284,0.698149 0.40951,-0.0549 0.65295,-0.378686 0.54053,-0.719336 -0.0638,-0.19321 -0.24083,-0.323184 -0.60616,-0.444934 -0.17084,-0.0569 -0.31366,-0.164109 -0.53434,-0.401009 -0.22029,-0.23648 -0.38729,-0.361765 -0.62218,-0.467155 -0.49557,-0.22234 -0.64697,-0.500458 -0.46457,-0.853178 0.0831,-0.160678 0.16725,-0.203559 0.39429,-0.203089 z m 8.61136,0.115239 c 0.0616,-0.0097 0.12948,-0.0094 0.2036,5.16e-4 0.52416,0.0703 0.81232,0.889388 0.44287,1.258838 -0.10081,0.100797 -0.17639,0.126608 -0.37,0.126608 -0.20778,0 -0.27166,-0.02563 -0.43719,-0.175183 -0.2708,-0.2447 -0.3526,-0.542352 -0.23409,-0.852662 0.0805,-0.210743 0.20996,-0.328992 0.39481,-0.358117 z m 27.468089,0.03411 c 0.206559,10e-7 0.400493,0.194546 0.400493,0.401526 0,0.20228 -0.06054,0.313615 -0.358635,0.660425 -0.284191,0.33064 -0.366564,0.508662 -0.412894,0.890902 -0.05143,0.42429 -0.122195,0.593994 -0.281637,0.676444 -0.201744,0.104329 -0.32114,0.09289 -0.483175,-0.04651 -0.12847,-0.1105 -0.140684,-0.149991 -0.14056,-0.463021 1.22e-4,-0.30617 0.02841,-0.405694 0.269751,-0.943094 0.419896,-0.93502 0.626764,-1.176674 1.006657,-1.176672 z m -32.576309,0.501778 c 0.24852,0 0.51171,0.21571 0.92398,0.75706 0.40488,0.53164 0.53387,0.82498 0.48937,1.11311 -0.0482,0.31206 -0.16,0.478136 -0.69608,1.034046 -0.27906,0.28938 -0.59452,0.634863 -0.70125,0.767912 -0.34742,0.433091 -0.67538,0.545215 -0.91002,0.310575 -0.1387,-0.1387 -0.1567,-0.319055 -0.0517,-0.518315 0.0788,-0.1496 0.4745,-0.540694 0.84543,-0.836124 0.24724,-0.19691 0.44793,-0.491587 0.50643,-0.743107 0.0554,-0.23837 -0.0633,-0.488561 -0.39636,-0.833541 -0.17282,-0.17898 -0.3394,-0.374976 -0.37,-0.435116 -0.14787,-0.29039 0.0427,-0.6165 0.36018,-0.6165 z m 24.739062,0.577743 c 0.310208,-0.02861 0.593133,0.15018 0.856278,0.540535 0.19924,0.29559 0.198318,0.297631 -0.253214,0.512631 -0.279965,0.13332 -0.524845,0.149315 -0.754993,0.04909 -0.233935,-0.10186 -0.371554,-0.306838 -0.371554,-0.554488 0,-0.26594 0.139889,-0.454295 0.388607,-0.522965 0.04544,-0.01255 0.09056,-0.02072 0.134876,-0.02481 z m 8.868192,0.317293 c 0.04644,-0.0011 0.09612,0.0042 0.149862,0.01654 0.214968,0.04945 0.497592,0.208988 0.921907,0.496093 0.395796,0.26781 0.560538,0.345428 0.981336,0.461988 0.278111,0.077 0.75873,0.169118 1.068152,0.204638 0.628558,0.0722 0.770116,0.140184 0.920874,0.443384 0.07784,0.15656 0.08288,0.211342 0.03256,0.363802 -0.134952,0.40891 -0.650514,0.491524 -1.23145,0.197404 -0.189563,-0.096 -0.58111,-0.353745 -0.870231,-0.572575 -0.606434,-0.458982 -0.737887,-0.504362 -1.450557,-0.504362 -0.726856,0 -0.98308,-0.134913 -1.03818,-0.545703 -0.02444,-0.18222 -0.0094,-0.220565 0.149345,-0.379305 0.115541,-0.11554 0.227067,-0.178453 0.366386,-0.181901 z m -6.803202,0.127124 c 0.15852,0.01603 0.278495,0.102756 0.387056,0.262516 0.13778,0.20277 0.173666,0.539233 0.077,0.719853 -0.121042,0.226166 -0.504344,0.309395 -0.77463,0.168465 -0.211128,-0.11009 -0.313739,-0.21015 -0.505395,-0.49351 -0.194998,-0.28829 -0.182395,-0.31946 0.197921,-0.49661 0.262465,-0.122254 0.459529,-0.176744 0.61805,-0.160714 z m 1.727543,0.172083 c 0.127825,-0.0068 0.261156,0.04189 0.360701,0.160197 0.207682,0.24681 0.153776,0.618576 -0.135392,0.934826 -0.136666,0.149455 -0.245409,0.142301 -0.36897,-0.0248 -0.178967,-0.24208 -0.267167,-0.453344 -0.267167,-0.638204 0,-0.204485 0.126583,-0.350971 0.286288,-0.407211 0.03993,-0.01406 0.08193,-0.02254 0.12454,-0.0248 z m -14.667325,0.101285 c -0.30469,-0.0047 -0.66333,0.219119 -0.8294,0.564824 -0.33979,0.70736 -0.17284,1.16424 0.58601,1.60352 0.58346,0.337748 0.9977,0.643278 1.23713,0.894519 h 1.01286 c -0.0817,-0.07912 -0.16167,-0.176004 -0.24185,-0.310576 -0.26555,-0.44567 -0.44893,-0.626705 -0.83354,-0.821655 -0.18383,-0.0932 -0.37011,-0.220273 -0.41341,-0.282153 -0.0979,-0.13914 -0.0996,-0.473408 -0.004,-0.640788 0.14852,-0.25982 0.0256,-0.739611 -0.23616,-0.922941 -0.0805,-0.05637 -0.17595,-0.08318 -0.27751,-0.08475 z m -5.87251,0.756027 c 0.26282,0.01219 0.50132,0.22401 0.50282,0.510563 0.001,0.23709 -0.17802,0.453881 -0.51729,0.625801 -0.14015,0.071 -0.39052,0.257872 -0.55655,0.414962 -0.51617,0.48841 -0.68812,0.551826 -0.9462,0.348816 -0.159,-0.12509 -0.17908,-0.400767 -0.0439,-0.602547 0.11299,-0.16867 1.15538,-1.163314 1.29811,-1.238684 0.0851,-0.04496 0.17542,-0.06297 0.26303,-0.05891 z m 15.452807,0.164848 c 0.205329,-0.0027 0.420646,0.19282 0.420646,0.41031 0,0.12975 -0.263864,0.38248 -0.550354,0.5271 -0.15755,0.0795 -0.410183,0.257858 -0.561723,0.396358 -0.372494,0.340443 -0.578046,0.414833 -0.822176,0.296623 -0.14105,-0.0683 -0.23544,-0.251748 -0.22944,-0.447518 0.007,-0.22882 0.21832,-0.42266 0.59893,-0.54932 0.186612,-0.0621 0.451694,-0.206999 0.632004,-0.345199 0.17088,-0.13097 0.362397,-0.254432 0.425297,-0.274402 0.02826,-0.009 0.05748,-0.01357 0.08682,-0.01395 z m 4.226615,1.504817 c -0.36109,0.0055 -0.615082,0.117005 -0.719336,0.322978 -0.02774,0.05477 -0.05689,0.181841 -0.0801,0.314193 h 2.07946 c -0.162083,-0.325316 -0.433118,-0.536615 -0.884701,-0.606682 -0.142527,-0.02213 -0.274962,-0.03231 -0.395325,-0.03049 z m -8.242392,0.449585 c -0.0503,-0.0052 -0.10147,-0.0049 -0.15296,0.001 -0.0866,0.01 -0.1738,0.03592 -0.25735,0.07855 -0.0609,0.03105 -0.11373,0.06732 -0.15916,0.108004 h 0.97513 c -0.11285,-0.106938 -0.25485,-0.171873 -0.40566,-0.187586 z" />
  </g>
</svg>
